<?xml version="1.0" encoding="UTF-8"?><!DOCTYPE svg PUBLIC "-//W3C//DTD SVG 1.1//EN" "http://www.w3.org/Graphics/SVG/1.1/DTD/svg11.dtd"><svg xmlns="http://www.w3.org/2000/svg" xmlns:xlink="http://www.w3.org/1999/xlink"><defs/><symbol id="we360-connect" viewBox="0 0 304.309 100.357"><g><g><path fill="#FF8600" d="M63.291 70.808 47.957 38.035 32.472 70.808 0 1.503h4.961l27.662 58.781 13.079-27.511L31.27 1.804h4.811l12.027 26.158L60.435 1.503h4.811l-14.733 31.42 12.778 27.511L90.502 1.654h4.811L63.291 70.808z"/><path fill="#FF8600" d="M132.896 62.69c4.71-2.706 8.618-6.413 11.726-11.125v7.667c-3.709 4.111-7.768 7.092-12.177 8.945-4.412 1.853-9.422 2.781-15.034 2.781-6.215 0-12.053-1.654-17.514-4.961-5.464-3.308-9.823-7.717-13.079-13.229-3.258-5.511-4.886-11.374-4.886-17.589 0-6.713 1.602-12.753 4.811-18.115 3.206-5.361 7.592-9.546 13.154-12.553C105.46 1.503 111.647 0 118.464 0c10.422 0 19.292 4.111 26.609 12.327L97.868 58.931c3.307 2.706 6.514 4.686 9.621 5.938 3.105 1.255 6.615 1.879 10.523 1.879C123.223 66.749 128.184 65.396 132.896 62.69zM95.011 56.075l44.048-43.748c-3.307-2.906-6.516-4.985-9.621-6.239-3.108-1.252-6.817-1.879-11.125-1.879-6.114 0-11.552 1.33-16.311 3.984-4.761 2.657-8.494 6.29-11.2 10.899-2.706 4.611-4.059 9.823-4.059 15.635C86.743 43.048 89.498 50.163 95.011 56.075z"/></g><path fill="#4F7FFF" d="M299.491 17.962c-3.193-5.413-7.557-9.776-12.969-12.969-5.421-3.197-11.41-4.818-17.801-4.818-6.333 0-12.306 1.621-17.754 4.817-5.443 3.193-9.822 7.556-13.015 12.97-2.334 3.957-3.832 8.175-4.467 12.572-2.202-3.404-5.05-6.192-8.486-8.303-3.91-2.401-8.141-3.618-12.578-3.618-2.273 0-4.669.342-7.12 1.015-.717.198-1.401.415-2.05.651l17.086-19.12h-5.711l-19.859 22.76c-3.715 4.256-6.356 8.521-7.874 12.709-.174-.325-.356-.644-.545-.955-2.034-3.343-4.986-5.915-8.786-7.66 1.574-1.377 2.808-2.975 3.678-4.765 1.067-2.197 1.608-4.551 1.608-6.999 0-2.699-.699-5.324-2.078-7.802-1.382-2.479-3.352-4.498-5.858-6.002-2.512-1.507-5.461-2.271-8.766-2.271-3.474 0-6.613.775-9.328 2.304-2.722 1.534-4.865 3.661-6.368 6.323-1.494 2.647-2.314 5.623-2.437 8.848l-.034.892h4.578l.037-.82c.112-2.476.752-4.755 1.902-6.775 1.14-2.004 2.736-3.614 4.743-4.785 2.005-1.17 4.329-1.763 6.907-1.763 2.458 0 4.63.547 6.455 1.626 1.822 1.077 3.235 2.531 4.201 4.322.971 1.806 1.464 3.792 1.464 5.904 0 2.286-.596 4.509-1.77 6.607-1.175 2.099-2.973 3.907-5.341 5.373l-1.701 1.053 1.935.508c4.545 1.193 7.994 3.471 10.25 6.77 2.276 3.331 3.43 7.549 3.43 12.539 0 3.346-.816 6.388-2.426 9.043-1.609 2.654-3.903 4.761-6.819 6.26-2.936 1.511-6.342 2.277-10.124 2.277-3.713 0-7.08-.836-10.007-2.485-2.92-1.644-5.204-3.912-6.788-6.743-1.59-2.839-2.396-6.01-2.396-9.426v-2.291h-4.493v2.738c0 4.079 1.035 7.871 3.076 11.272 2.039 3.399 4.902 6.138 8.509 8.141 3.603 2.002 7.704 3.017 12.188 3.017 4.535 0 8.672-.951 12.299-2.826 3.642-1.883 6.525-4.485 8.567-7.735.655-1.041 1.209-2.128 1.658-3.247.189.351.387.698.593 1.039 2.361 3.927 5.595 7.1 9.614 9.43 4.02 2.334 8.457 3.517 13.186 3.517 4.73 0 9.138-1.184 13.101-3.52 3.956-2.33 7.145-5.519 9.478-9.478 1.194-2.027 2.091-4.172 2.679-6.402.284.558.582 1.11.894 1.651 3.133 5.446 7.468 9.827 12.884 13.021 5.419 3.197 11.469 4.818 17.98 4.818 6.45 0 12.47-1.621 17.89-4.818 5.413-3.193 9.761-7.541 12.925-12.925 3.167-5.392 4.773-11.335 4.773-17.665C304.309 29.372 302.688 23.383 299.491 17.962zM268.721 66.859c-5.547 0-10.745-1.42-15.449-4.22-4.714-2.804-8.512-6.632-11.289-11.377-2.773-4.736-4.179-9.981-4.179-15.588 0-5.548 1.406-10.778 4.18-15.545 2.776-4.772 6.574-8.614 11.288-11.419 4.706-2.801 9.904-4.22 15.448-4.22 5.543 0 10.741 1.42 15.448 4.22 4.715 2.807 8.513 6.649 11.288 11.42 2.773 4.767 4.18 9.997 4.18 15.545 0 5.608-1.406 10.852-4.179 15.588-2.776 4.743-6.575 8.571-11.289 11.377C279.464 65.439 274.267 66.859 268.721 66.859zM230.248 55.968c-1.918 3.347-4.54 6.028-7.795 7.969-3.249 1.939-6.866 2.922-10.748 2.922-3.886 0-7.534-.984-10.844-2.925-3.316-1.943-5.983-4.624-7.926-7.97-1.942-3.341-2.927-7.035-2.927-10.981 0-3.884.999-7.562 2.97-10.934 1.976-3.378 4.661-6.107 7.982-8.112 3.309-1.997 6.924-3.009 10.745-3.009 3.82 0 7.405.997 10.654 2.964 3.259 1.972 5.899 4.685 7.846 8.063 1.944 3.375 2.929 7.086 2.929 11.028C233.134 48.928 232.163 52.624 230.248 55.968L230.248 55.968z"/><g><rect x="249.024" y="19.313" transform="matrix(0.7071 0.7071 -0.7071 0.7071 95.5287 -168.6745)" fill="#FF8600" width="4.698" height="23.327"/><rect x="262.556" y="8.642" transform="matrix(0.7071 0.7071 -0.7071 0.7071 100.5679 -177.7975)" fill="#FF8600" width="4.698" height="47.711"/><rect x="258.627" y="21.982" transform="matrix(0.7071 -0.7071 0.7071 0.7071 57.0298 192.5766)" fill="#FF8600" width="4.698" height="10.93"/><rect x="288.638" y="9.31" transform="matrix(0.7071 -0.7071 0.7071 0.7071 68.0012 212.8944)" fill="#FF8600" width="4.698" height="30.105"/></g><g><path fill="#0F8171" d="M247.116 27.903c2.386-6.197 7.41-11.095 13.69-13.309-.165-.633-.253-1.297-.253-1.981 0-1.085.221-2.119.619-3.06-4.582 1.233-8.782 3.647-12.227 7.092-2.663 2.663-4.71 5.778-6.072 9.171C244.354 26.362 245.775 27.059 247.116 27.903z"/></g><circle fill="#FF8600" cx="268.348" cy="12.56" r="5.125"/><path fill="#25DCE5" d="M298.435 49.794c-.319-4.815-3.473-8.779-7.725-10.369-2.245-3.629-6.371-5.935-10.919-5.633-6.019.399-7.789 4.826-4.853 7.397 1.22-1.535 3.058-2.571 5.164-2.71 1.209-.08 2.368.146 3.404.609-4.156 1.21-5.117 4.799-2.589 7.013 1.22-1.535 3.058-2.571 5.164-2.71.458-.03.908-.015 1.347.038.183.56.3 1.151.341 1.765.139 2.106-.645 4.064-2.005 5.476l3.534 3.095c-.001.001-.001.002-.002.002l-3.534-3.096-.007-.008c-.123.146-.248.291-.375.434-.018.021-.036.041-.055.061-.116.13-.233.258-.351.385-.02.022-.041.043-.061.065-.117.125-.236.248-.356.371-.022.023-.045.046-.067.068-.119.12-.239.238-.36.356-.025.024-.05.048-.075.072-.12.115-.241.228-.364.341-.027.025-.055.05-.082.075-.121.11-.243.218-.367.326-.03.026-.06.052-.09.078-.122.105-.245.209-.37.311-.033.027-.065.054-.098.08-.123.1-.247.199-.371.296-.035.028-.071.055-.106.083-.123.095-.248.189-.373.281-.038.028-.076.057-.115.085-.124.09-.249.179-.374.267-.041.029-.082.057-.123.086-.124.086-.249.17-.375.253-.044.029-.088.058-.132.087-.124.081-.249.16-.375.238-.047.029-.094.059-.141.088-.124.076-.249.151-.375.225-.05.029-.1.059-.15.088-.124.072-.249.142-.375.211-.053.029-.106.059-.159.087-.124.067-.249.132-.374.197-.056.029-.112.058-.168.087-.123.063-.248.124-.373.184-.059.029-.118.058-.178.086-.123.058-.247.115-.372.171-.062.028-.124.057-.186.084-.122.054-.246.106-.37.158-.065.027-.13.055-.196.082-.122.05-.245.098-.368.146-.068.026-.136.054-.205.079-.122.046-.244.09-.367.134-.071.025-.142.052-.213.076-.121.042-.243.082-.365.122-.074.024-.148.049-.222.073-.121.038-.242.074-.364.11-.077.023-.153.046-.23.068-.12.034-.242.067-.363.099-.079.021-.157.043-.237.063-.12.031-.241.059-.362.088-.081.019-.162.04-.244.058-.12.027-.241.052-.361.077-.083.018-.167.036-.25.053-.12.024-.242.045-.363.067-.085.015-.169.032-.254.046-.121.02-.243.038-.365.057-.086.013-.172.027-.258.04-.123.017-.246.032-.369.047-.086.011-.172.023-.258.032-.126.014-.252.025-.378.037-.085.008-.17.018-.255.025-.131.011-.263.019-.394.028-.081.005-.162.012-.243.017-.145.008-.29.013-.435.018-.069.003-.138.007-.207.009-.215.006-.43.009-.646.009-.174 0-.348-.003-.522-.007-.047-.001-.094-.002-.141-.004-.146-.004-.292-.01-.438-.017-.03-.001-.06-.002-.089-.004-.169-.009-.338-.02-.506-.032-.046-.003-.093-.007-.139-.011-.132-.011-.264-.022-.396-.035-.045-.004-.091-.009-.136-.013-.163-.017-.326-.036-.489-.056-.044-.006-.089-.012-.133-.018-.125-.016-.25-.034-.374-.052-.055-.008-.11-.016-.165-.025-.157-.025-.314-.05-.47-.078-.04-.007-.08-.015-.121-.023-.122-.022-.244-.046-.366-.07-.063-.013-.126-.026-.189-.039-.111-.023-.222-.048-.333-.073-.065-.015-.131-.029-.196-.045-.13-.031-.26-.062-.39-.095-.07-.018-.14-.036-.21-.055-.089-.024-.178-.048-.267-.073-.07-.019-.141-.039-.211-.059-.134-.039-.268-.079-.401-.12-.078-.024-.155-.049-.233-.074-.074-.024-.147-.047-.221-.072-.081-.027-.163-.054-.244-.082-.074-.026-.148-.052-.222-.079-.138-.049-.275-.099-.411-.151-.058-.022-.117-.044-.175-.067-.09-.035-.179-.07-.268-.106-.049-.02-.098-.04-.146-.06-.169-.069-.338-.141-.505-.214-.039-.017-.077-.034-.116-.051-.095-.042-.19-.086-.285-.129-.039-.018-.077-.036-.116-.054-.308-.144-.612-.295-.912-.453-.031-.016-.062-.033-.093-.049-.307-.163-.61-.333-.909-.51-.025-.014-.049-.029-.073-.044-.099-.059-.199-.119-.297-.18-6.495-4.008-10.833-11.189-10.833-19.366 0-9.897 6.356-18.336 15.199-21.453-.165-.633-.253-1.297-.253-1.981 0-1.085.221-2.119.619-3.06-4.582 1.233-8.782 3.647-12.227 7.092-5.182 5.182-8.036 12.073-8.036 19.402s2.854 14.219 8.036 19.402c1.638 1.638 3.447 3.042 5.385 4.198.14.084.282.166.423.247.083.047.166.094.249.14.086.048.173.096.259.143.082.045.164.09.247.134.145.077.291.153.437.227.081.041.163.081.245.122.091.045.183.09.275.134.083.04.165.08.248.118.151.071.302.14.454.208.077.034.154.067.231.101.1.044.201.087.302.129.081.034.162.068.244.102.131.054.263.106.395.158.093.036.187.072.281.108.114.043.228.086.342.127.078.028.157.057.235.084.129.045.258.09.387.133.084.028.169.056.254.084.137.044.273.088.411.13.074.023.147.045.221.067.131.039.263.077.395.114.055.015.109.032.164.047.175.048.351.094.527.139.068.017.135.034.203.05.137.034.275.066.413.098.055.013.11.026.165.038.182.04.364.079.547.115.06.012.121.024.181.035.144.028.289.055.434.081.055.01.11.02.165.029.188.032.376.062.565.09.051.008.103.015.154.022.153.022.307.043.461.062.054.007.108.014.162.02.194.023.388.045.582.064.039.004.079.007.119.011.165.016.331.03.496.042.053.004.107.008.16.012.199.014.398.027.597.036.024.001.047.002.071.003.181.008.361.015.543.02.053.001.107.003.16.004.203.004.406.007.61.007 7.329 0 14.219-2.854 19.402-8.036.126-.126.251-.254.374-.382.041-.042.081-.085.121-.128.083-.088.166-.176.248-.265.044-.047.087-.095.131-.142.086-.095.172-.19.256-.285.031-.035.063-.07.094-.106.02-.023.041-.046.061-.069-.003.003-.007.007-.01.01.092-.106.184-.212.275-.319 1.817-1.959 2.977-4.52 3.158-7.316.734 1.044 1.2 2.294 1.29 3.658.139 2.106-.4 4.278-1.76 5.69l3.29 2.881C297.429 56.356 298.66 53.192 298.435 49.794z"/><g><path fill="#4F7FFF" d="M268.721 71.172c-9.482 0-18.396-3.693-25.101-10.397s-10.397-15.619-10.397-25.101 3.693-18.396 10.397-25.101 15.619-10.397 25.101-10.397c9.482 0 18.396 3.693 25.101 10.397s10.397 15.619 10.397 25.101-3.693 18.396-10.397 25.101S278.203 71.172 268.721 71.172zM268.721 4.916c-8.216 0-15.94 3.199-21.749 9.009-5.809 5.809-9.009 13.533-9.009 21.749s3.199 15.94 9.009 21.749c5.809 5.809 13.533 9.009 21.749 9.009 8.216 0 15.94-3.199 21.749-9.009 5.809-5.809 9.009-13.533 9.009-21.749s-3.199-15.94-9.009-21.749C284.661 8.115 276.937 4.916 268.721 4.916z"/></g></g><g><path fill="#4F7FFF" d="M144.78 98.949c-1.797-.938-3.204-2.25-4.223-3.936-1.02-1.685-1.529-3.597-1.529-5.736s.509-4.052 1.529-5.737c1.019-1.685 2.426-2.997 4.223-3.936 1.796-.938 3.814-1.408 6.055-1.408 2.059 0 3.896.363 5.51 1.09 1.615.727 2.947 1.776 3.997 3.149l-4.512 4.026c-1.312-1.655-2.855-2.482-4.632-2.482-1.493 0-2.694.479-3.603 1.438-.908.959-1.362 2.245-1.362 3.86 0 1.614.454 2.901 1.362 3.859.908.959 2.109 1.438 3.603 1.438 1.776 0 3.32-.827 4.632-2.482l4.512 4.026c-1.05 1.373-2.382 2.422-3.997 3.148-1.614.727-3.451 1.09-5.51 1.09C148.595 100.357 146.576 99.888 144.78 98.949z"/><path fill="#4F7FFF" d="M167.425 98.934c-1.816-.948-3.239-2.266-4.269-3.951-1.029-1.685-1.544-3.587-1.544-5.706s.515-4.021 1.544-5.707c1.029-1.685 2.452-3.002 4.269-3.951 1.816-.948 3.865-1.423 6.146-1.423 2.281 0 4.329.475 6.146 1.423 1.816.949 3.239 2.267 4.269 3.951 1.029 1.686 1.544 3.588 1.544 5.707s-.515 4.021-1.544 5.706c-1.029 1.686-2.452 3.003-4.269 3.951-1.817.948-3.865 1.423-6.146 1.423C171.29 100.357 169.241 99.883 167.425 98.934zM175.978 93.924c.716-.434 1.286-1.049 1.71-1.847.424-.797.636-1.73.636-2.8s-.212-2.003-.636-2.801c-.424-.797-.994-1.412-1.71-1.847-.717-.434-1.519-.65-2.407-.65-.888 0-1.69.217-2.406.65-.717.435-1.287 1.05-1.711 1.847-.424.798-.636 1.731-.636 2.801s.212 2.003.636 2.8c.424.798.994 1.413 1.711 1.847.716.435 1.519.651 2.406.651C174.459 94.575 175.261 94.358 175.978 93.924z"/><path fill="#4F7FFF" d="M209.816 78.68v21.192h-5.874l-8.053-9.627v9.627h-6.963V78.68h5.873l8.053 9.628V78.68H209.816z"/><path fill="#4F7FFF" d="M235.197 78.68v21.192h-5.874l-8.053-9.627v9.627h-6.963V78.68h5.873l8.053 9.628V78.68H235.197z"/><path fill="#4F7FFF" d="M257.309 94.484v5.389h-17.62V78.68h17.227v5.39h-10.203v2.482h8.961v5.146h-8.961v2.785H257.309z"/><path fill="#4F7FFF" d="M265.582 98.949c-1.797-.938-3.204-2.25-4.223-3.936-1.02-1.685-1.529-3.597-1.529-5.736s.51-4.052 1.529-5.737c1.019-1.685 2.426-2.997 4.223-3.936 1.796-.938 3.814-1.408 6.055-1.408 2.059 0 3.896.363 5.51 1.09 1.615.727 2.947 1.776 3.997 3.149l-4.512 4.026c-1.312-1.655-2.855-2.482-4.632-2.482-1.493 0-2.694.479-3.603 1.438-.908.959-1.362 2.245-1.362 3.86 0 1.614.454 2.901 1.362 3.859.908.959 2.109 1.438 3.603 1.438 1.776 0 3.32-.827 4.632-2.482l4.512 4.026c-1.05 1.373-2.382 2.422-3.997 3.148-1.614.727-3.451 1.09-5.51 1.09C269.397 100.357 267.378 99.888 265.582 98.949z"/><path fill="#4F7FFF" d="M289.08 84.221h-6.206V78.68h19.558v5.541h-6.207v15.651h-7.145V84.221z"/></g></symbol><symbol id="we360-meet" viewBox="0 0 304.309 99.872"><g><g><path fill="#FF8600" d="M63.291 70.808 47.957 38.035 32.472 70.808 0 1.503h4.961l27.662 58.781 13.079-27.511L31.27 1.804h4.811l12.027 26.158L60.435 1.503h4.811l-14.733 31.42 12.778 27.511L90.502 1.654h4.811L63.291 70.808z"/><path fill="#FF8600" d="M132.896 62.69c4.71-2.706 8.618-6.413 11.726-11.125v7.667c-3.709 4.111-7.768 7.092-12.177 8.945-4.412 1.853-9.422 2.781-15.034 2.781-6.215 0-12.053-1.654-17.514-4.961-5.464-3.308-9.823-7.717-13.079-13.229-3.258-5.511-4.886-11.374-4.886-17.589 0-6.713 1.602-12.753 4.811-18.115 3.206-5.361 7.592-9.546 13.154-12.553C105.46 1.503 111.647 0 118.464 0c10.422 0 19.292 4.111 26.609 12.327L97.868 58.931c3.307 2.706 6.514 4.686 9.621 5.938 3.105 1.255 6.615 1.879 10.523 1.879C123.223 66.749 128.184 65.396 132.896 62.69zM95.011 56.075l44.048-43.748c-3.307-2.906-6.516-4.985-9.621-6.239-3.108-1.252-6.817-1.879-11.125-1.879-6.114 0-11.552 1.33-16.311 3.984-4.761 2.657-8.494 6.29-11.2 10.899-2.706 4.611-4.059 9.823-4.059 15.635C86.743 43.048 89.498 50.163 95.011 56.075z"/></g><path fill="#4F7FFF" d="M299.491 17.962c-3.193-5.413-7.557-9.776-12.969-12.969-5.421-3.197-11.41-4.818-17.801-4.818-6.333 0-12.306 1.621-17.754 4.817-5.443 3.193-9.822 7.556-13.015 12.97-2.334 3.957-3.832 8.175-4.467 12.572-2.202-3.404-5.05-6.192-8.486-8.303-3.91-2.401-8.141-3.618-12.578-3.618-2.273 0-4.669.342-7.12 1.015-.717.198-1.401.415-2.05.651l17.086-19.12h-5.711l-19.859 22.76c-3.715 4.256-6.356 8.521-7.874 12.709-.174-.325-.356-.644-.545-.955-2.034-3.343-4.986-5.915-8.786-7.66 1.574-1.377 2.808-2.975 3.678-4.765 1.067-2.197 1.608-4.551 1.608-6.999 0-2.699-.699-5.324-2.078-7.802-1.382-2.479-3.352-4.498-5.858-6.002-2.512-1.507-5.461-2.271-8.766-2.271-3.474 0-6.613.775-9.328 2.304-2.722 1.534-4.865 3.661-6.368 6.323-1.494 2.647-2.314 5.623-2.437 8.848l-.034.892h4.578l.037-.82c.112-2.476.752-4.755 1.902-6.775 1.14-2.004 2.736-3.614 4.743-4.785 2.005-1.17 4.329-1.763 6.907-1.763 2.458 0 4.63.547 6.455 1.626 1.822 1.077 3.235 2.531 4.201 4.322.971 1.806 1.464 3.792 1.464 5.904 0 2.286-.596 4.509-1.77 6.607-1.175 2.099-2.973 3.907-5.341 5.373l-1.701 1.053 1.935.508c4.545 1.193 7.994 3.471 10.25 6.77 2.276 3.331 3.43 7.549 3.43 12.539 0 3.346-.816 6.388-2.426 9.043-1.609 2.654-3.903 4.761-6.819 6.26-2.936 1.511-6.342 2.277-10.124 2.277-3.713 0-7.08-.836-10.007-2.485-2.92-1.644-5.204-3.912-6.788-6.743-1.59-2.839-2.396-6.01-2.396-9.426v-2.291h-4.493v2.738c0 4.079 1.035 7.871 3.076 11.272 2.039 3.399 4.902 6.138 8.509 8.141 3.603 2.002 7.704 3.017 12.188 3.017 4.535 0 8.672-.951 12.299-2.826 3.642-1.883 6.525-4.485 8.567-7.735.655-1.041 1.209-2.128 1.658-3.247.189.351.387.698.593 1.039 2.361 3.927 5.595 7.1 9.614 9.43 4.02 2.334 8.457 3.517 13.186 3.517 4.73 0 9.138-1.184 13.101-3.52 3.956-2.33 7.145-5.519 9.478-9.478 1.194-2.027 2.091-4.172 2.679-6.402.284.558.582 1.11.894 1.651 3.133 5.446 7.468 9.827 12.884 13.021 5.419 3.197 11.469 4.818 17.98 4.818 6.45 0 12.47-1.621 17.89-4.818 5.413-3.193 9.761-7.541 12.925-12.925 3.167-5.392 4.773-11.335 4.773-17.665C304.309 29.372 302.688 23.383 299.491 17.962zM268.721 66.859c-5.547 0-10.745-1.42-15.449-4.22-4.714-2.804-8.512-6.632-11.289-11.377-2.773-4.736-4.179-9.981-4.179-15.588 0-5.548 1.406-10.778 4.18-15.545 2.776-4.772 6.574-8.614 11.288-11.419 4.706-2.801 9.904-4.22 15.448-4.22 5.543 0 10.741 1.42 15.448 4.22 4.715 2.807 8.513 6.649 11.288 11.42 2.773 4.767 4.18 9.997 4.18 15.545 0 5.608-1.406 10.852-4.179 15.588-2.776 4.743-6.575 8.571-11.289 11.377C279.464 65.439 274.267 66.859 268.721 66.859zM230.248 55.968c-1.918 3.347-4.54 6.028-7.795 7.969-3.249 1.939-6.866 2.922-10.748 2.922-3.886 0-7.534-.984-10.844-2.925-3.316-1.943-5.983-4.624-7.926-7.97-1.942-3.341-2.927-7.035-2.927-10.981 0-3.884.999-7.562 2.97-10.934 1.976-3.378 4.661-6.107 7.982-8.112 3.309-1.997 6.924-3.009 10.745-3.009 3.82 0 7.405.997 10.654 2.964 3.259 1.972 5.899 4.685 7.846 8.063 1.944 3.375 2.929 7.086 2.929 11.028C233.134 48.928 232.163 52.624 230.248 55.968L230.248 55.968z"/><g><rect x="249.024" y="19.313" transform="matrix(0.7071 0.7071 -0.7071 0.7071 95.5287 -168.6745)" fill="#FF8600" width="4.698" height="23.327"/><rect x="262.556" y="8.642" transform="matrix(0.7071 0.7071 -0.7071 0.7071 100.5679 -177.7975)" fill="#FF8600" width="4.698" height="47.711"/><rect x="258.627" y="21.982" transform="matrix(0.7071 -0.7071 0.7071 0.7071 57.0298 192.5766)" fill="#FF8600" width="4.698" height="10.93"/><rect x="288.638" y="9.31" transform="matrix(0.7071 -0.7071 0.7071 0.7071 68.0012 212.8944)" fill="#FF8600" width="4.698" height="30.105"/></g><g><path fill="#0F8171" d="M247.116 27.903c2.386-6.197 7.41-11.095 13.69-13.309-.165-.633-.253-1.297-.253-1.981 0-1.085.221-2.119.619-3.06-4.582 1.233-8.782 3.647-12.227 7.092-2.663 2.663-4.71 5.778-6.072 9.171C244.354 26.362 245.775 27.059 247.116 27.903z"/></g><circle fill="#FF8600" cx="268.348" cy="12.56" r="5.125"/><path fill="#25DCE5" d="M298.435 49.794c-.319-4.815-3.473-8.779-7.725-10.369-2.245-3.629-6.371-5.935-10.919-5.633-6.019.399-7.789 4.826-4.853 7.397 1.22-1.535 3.058-2.571 5.164-2.71 1.209-.08 2.368.146 3.404.609-4.156 1.21-5.117 4.799-2.589 7.013 1.22-1.535 3.058-2.571 5.164-2.71.458-.03.908-.015 1.347.038.183.56.3 1.151.341 1.765.139 2.106-.645 4.064-2.005 5.476l3.534 3.095c-.001.001-.001.002-.002.002l-3.534-3.096-.007-.008c-.123.146-.248.291-.375.434-.018.021-.036.041-.055.061-.116.13-.233.258-.351.385-.02.022-.041.043-.061.065-.117.125-.236.248-.356.371-.022.023-.045.046-.067.068-.119.12-.239.238-.36.356-.025.024-.05.048-.075.072-.12.115-.241.228-.364.341-.027.025-.055.05-.082.075-.121.11-.243.218-.367.326-.03.026-.06.052-.09.078-.122.105-.245.209-.37.311-.033.027-.065.054-.098.08-.123.1-.247.199-.371.296-.035.028-.071.055-.106.083-.123.095-.248.189-.373.281-.038.028-.076.057-.115.085-.124.09-.249.179-.374.267-.041.029-.082.057-.123.086-.124.086-.249.17-.375.253-.044.029-.088.058-.132.087-.124.081-.249.16-.375.238-.047.029-.094.059-.141.088-.124.076-.249.151-.375.225-.05.029-.1.059-.15.088-.124.072-.249.142-.375.211-.053.029-.106.059-.159.087-.124.067-.249.132-.374.197-.056.029-.112.058-.168.087-.123.063-.248.124-.373.184-.059.029-.118.058-.178.086-.123.058-.247.115-.372.171-.062.028-.124.057-.186.084-.122.054-.246.106-.37.158-.065.027-.13.055-.196.082-.122.05-.245.098-.368.146-.068.026-.136.054-.205.079-.122.046-.244.09-.367.134-.071.025-.142.052-.213.076-.121.042-.243.082-.365.122-.074.024-.148.049-.222.073-.121.038-.242.074-.364.11-.077.023-.153.046-.23.068-.12.034-.242.067-.363.099-.079.021-.157.043-.237.063-.12.031-.241.059-.362.088-.081.019-.162.04-.244.058-.12.027-.241.052-.361.077-.083.018-.167.036-.25.053-.12.024-.242.045-.363.067-.085.015-.169.032-.254.046-.121.02-.243.038-.365.057-.086.013-.172.027-.258.04-.123.017-.246.032-.369.047-.086.011-.172.023-.258.032-.126.014-.252.025-.378.037-.085.008-.17.018-.255.025-.131.011-.263.019-.394.028-.081.005-.162.012-.243.017-.145.008-.29.013-.435.018-.069.003-.138.007-.207.009-.215.006-.43.009-.646.009-.174 0-.348-.003-.522-.007-.047-.001-.094-.002-.141-.004-.146-.004-.292-.01-.438-.017-.03-.001-.06-.002-.089-.004-.169-.009-.338-.02-.506-.032-.046-.003-.093-.007-.139-.011-.132-.011-.264-.022-.396-.035-.045-.004-.091-.009-.136-.013-.163-.017-.326-.036-.489-.056-.044-.006-.089-.012-.133-.018-.125-.016-.25-.034-.374-.052-.055-.008-.11-.016-.165-.025-.157-.025-.314-.05-.47-.078-.04-.007-.08-.015-.121-.023-.122-.022-.244-.046-.366-.07-.063-.013-.126-.026-.189-.039-.111-.023-.222-.048-.333-.073-.065-.015-.131-.029-.196-.045-.13-.031-.26-.062-.39-.095-.07-.018-.14-.036-.21-.055-.089-.024-.178-.048-.267-.073-.07-.019-.141-.039-.211-.059-.134-.039-.268-.079-.401-.12-.078-.024-.155-.049-.233-.074-.074-.024-.147-.047-.221-.072-.081-.027-.163-.054-.244-.082-.074-.026-.148-.052-.222-.079-.138-.049-.275-.099-.411-.151-.058-.022-.117-.044-.175-.067-.09-.035-.179-.07-.268-.106-.049-.02-.098-.04-.146-.06-.169-.069-.338-.141-.505-.214-.039-.017-.077-.034-.116-.051-.095-.042-.19-.086-.285-.129-.039-.018-.077-.036-.116-.054-.308-.144-.612-.295-.912-.453-.031-.016-.062-.033-.093-.049-.307-.163-.61-.333-.909-.51-.025-.014-.049-.029-.073-.044-.099-.059-.199-.119-.297-.18-6.495-4.008-10.833-11.189-10.833-19.366 0-9.897 6.356-18.336 15.199-21.453-.165-.633-.253-1.297-.253-1.981 0-1.085.221-2.119.619-3.06-4.582 1.233-8.782 3.647-12.227 7.092-5.182 5.182-8.036 12.073-8.036 19.402s2.854 14.219 8.036 19.402c1.638 1.638 3.447 3.042 5.385 4.198.14.084.282.166.423.247.083.047.166.094.249.14.086.048.173.096.259.143.082.045.164.09.247.134.145.077.291.153.437.227.081.041.163.081.245.122.091.045.183.09.275.134.083.04.165.08.248.118.151.071.302.14.454.208.077.034.154.067.231.101.1.044.201.087.302.129.081.034.162.068.244.102.131.054.263.106.395.158.093.036.187.072.281.108.114.043.228.086.342.127.078.028.157.057.235.084.129.045.258.09.387.133.084.028.169.056.254.084.137.044.273.088.411.13.074.023.147.045.221.067.131.039.263.077.395.114.055.015.109.032.164.047.175.048.351.094.527.139.068.017.135.034.203.05.137.034.275.066.413.098.055.013.11.026.165.038.182.04.364.079.547.115.06.012.121.024.181.035.144.028.289.055.434.081.055.01.11.02.165.029.188.032.376.062.565.09.051.008.103.015.154.022.153.022.307.043.461.062.054.007.108.014.162.02.194.023.388.045.582.064.039.004.079.007.119.011.165.016.331.03.496.042.053.004.107.008.16.012.199.014.398.027.597.036.024.001.047.002.071.003.181.008.361.015.543.02.053.001.107.003.16.004.203.004.406.007.61.007 7.329 0 14.219-2.854 19.402-8.036.126-.126.251-.254.374-.382.041-.042.081-.085.121-.128.083-.088.166-.176.248-.265.044-.047.087-.095.131-.142.086-.095.172-.19.256-.285.031-.035.063-.07.094-.106.02-.023.041-.046.061-.069-.003.003-.007.007-.01.01.092-.106.184-.212.275-.319 1.817-1.959 2.977-4.52 3.158-7.316.734 1.044 1.2 2.294 1.29 3.658.139 2.106-.4 4.278-1.76 5.69l3.29 2.881C297.429 56.356 298.66 53.192 298.435 49.794z"/><g><path fill="#4F7FFF" d="M268.721 71.172c-9.482 0-18.396-3.693-25.101-10.397s-10.397-15.619-10.397-25.101 3.693-18.396 10.397-25.101 15.619-10.397 25.101-10.397c9.482 0 18.396 3.693 25.101 10.397s10.397 15.619 10.397 25.101-3.693 18.396-10.397 25.101S278.203 71.172 268.721 71.172zM268.721 4.916c-8.216 0-15.94 3.199-21.749 9.009-5.809 5.809-9.009 13.533-9.009 21.749s3.199 15.94 9.009 21.749c5.809 5.809 13.533 9.009 21.749 9.009 8.216 0 15.94-3.199 21.749-9.009 5.809-5.809 9.009-13.533 9.009-21.749s-3.199-15.94-9.009-21.749C284.661 8.115 276.937 4.916 268.721 4.916z"/></g></g><g><g><path fill="#4F7FFF" d="M230.891 99.872l-.061-9.657-4.603 7.75h-3.148l-4.602-7.417v9.324h-6.509V78.679h5.873l6.902 11.293 6.722-11.293h5.873l.061 21.192H230.891z"/><path fill="#4F7FFF" d="M259.497 94.483v5.389h-17.62V78.679h17.227v5.39h-10.203v2.482h8.961v5.146h-8.961v2.785H259.497z"/><path fill="#4F7FFF" d="M281.009 94.483v5.389h-17.62V78.679h17.227v5.39h-10.203v2.482h8.961v5.146h-8.961v2.785H281.009z"/><path fill="#4F7FFF" d="M289.079 84.22h-6.206v-5.541h19.558v5.541h-6.207v15.651h-7.145V84.22z"/></g></g></symbol></svg>