<?xml version="1.0" encoding="UTF-8"?><!DOCTYPE svg PUBLIC "-//W3C//DTD SVG 1.1//EN" "http://www.w3.org/Graphics/SVG/1.1/DTD/svg11.dtd"><svg xmlns="http://www.w3.org/2000/svg" xmlns:xlink="http://www.w3.org/1999/xlink"><defs/><symbol id="microphone-active" viewBox="0 0 50 50"><g><rect opacity="1.000000e-04" width="50" height="50"/><g><path fill="#FFFFFF" d="M33.581 24.14c-.387 0-.701.314-.701.705.083 2.099-.656 4.104-2.081 5.646-1.426 1.543-3.366 2.438-5.465 2.521-2.099.074-4.104-.656-5.646-2.081-1.542-1.426-2.438-3.366-2.521-5.465-.008-.206-.008-.415 0-.627-.007-.385-.315-.692-.702-.699-.387 0-.702.314-.702.701.008 4.819 3.756 8.853 8.551 9.223v4.376h-3.339c-.387 0-.701.314-.701.703.007.386.314.692.701.699h8.082c.387 0 .701-.314.701-.701s-.314-.701-.701-.701h-3.339v-4.376c4.801-.364 8.554-4.398 8.563-9.223V24.84C34.274 24.454 33.967 24.147 33.581 24.14z"/><path fill="#FFFFFF" d="M24.951 30.296c-3.297 0-5.98-2.683-5.98-5.98V14.161c0-3.297 2.683-5.98 5.98-5.98s5.98 2.683 5.98 5.98v10.155C30.931 27.613 28.248 30.296 24.951 30.296zM24.951 9.38c-2.636 0-4.78 2.145-4.78 4.78v10.155c0 2.636 2.145 4.78 4.78 4.78s4.78-2.145 4.78-4.78V14.161C29.731 11.525 27.587 9.38 24.951 9.38z"/></g><circle fill="#61CE70" cx="38.727" cy="6.273" r="2.273"/></g></symbol><symbol id="microphone" viewBox="0 0 50 50"><g><rect opacity="1.000000e-04" width="50" height="50"/><g><g><path fill="#FFFFFF" d="M33.558 24.117c-.387 0-.701.314-.701.705.083 2.099-.656 4.104-2.081 5.646-1.426 1.543-3.366 2.438-5.465 2.521-2.099.074-4.104-.656-5.646-2.081-1.542-1.426-2.438-3.366-2.521-5.465-.008-.206-.008-.415 0-.627-.007-.385-.315-.692-.702-.699-.387 0-.702.314-.702.701.008 4.819 3.756 8.853 8.551 9.223v4.376h-3.339c-.387 0-.701.314-.701.703.007.386.314.692.701.699h8.082c.387 0 .701-.314.701-.701s-.314-.701-.701-.701h-3.339v-4.376c4.801-.364 8.554-4.398 8.563-9.223v-.002C34.251 24.431 33.944 24.124 33.558 24.117z"/><path fill="#FFFFFF" d="M24.928 30.273c-3.297 0-5.98-2.683-5.98-5.98V14.137c0-3.297 2.683-5.98 5.98-5.98s5.98 2.683 5.98 5.98v10.155C30.908 27.59 28.225 30.273 24.928 30.273zM24.928 9.357c-2.636 0-4.78 2.145-4.78 4.78v10.155c0 2.636 2.145 4.78 4.78 4.78s4.78-2.145 4.78-4.78V14.137C29.708 11.502 27.563 9.357 24.928 9.357z"/></g><path fill="#B34848" d="M40.985 9.003c-.223-.223-.52-.346-.836-.346-.316 0-.612.123-.836.346L9.015 39.302c-.461.461-.461 1.211 0 1.672.223.223.52.346.836.346s.612-.123.836-.346l30.299-30.299c.223-.223.346-.52.346-.836C41.331 9.523 41.208 9.227 40.985 9.003zM40.149 9.157 40.149 9.157c-.087 0-.174.017-.257.05C39.975 9.174 40.062 9.157 40.149 9.157zM9.368 40.62c-.266-.266-.266-.698 0-.964L39.667 9.357 9.368 39.655C9.102 39.922 9.102 40.354 9.368 40.62c.133.133.308.2.482.2C9.676 40.82 9.502 40.753 9.368 40.62z"/></g></g></symbol><symbol id="phone-active" viewBox="0 0 50 50"><g><rect opacity="1.000000e-04" width="50" height="50"/><g id="Line_9_" transform="matrix(-0.695, 0.719, -0.719, -0.695, 64.96, 30.516)"><path id="Path_4_9_" fill="#B34848" d="M35.809 46.084c2.956 0 4.951-2.079 5.538-5.714.135-.948-.12-1.91-.707-2.666l-.113-.106-4.293-3.395c-1.337-1.001-3.192-.93-4.448.17l-1.853 1.754c-3.861-.877-9.406-5.884-9.682-9.576l1.832-1.931c1.082-1.263 1.138-3.108.134-4.434l-3.381-4.279c-.035-.047-.078-.088-.127-.12-.755-.585-1.714-.84-2.659-.707-3.621.594-5.7 2.588-5.7 5.545C10.348 34.685 21.747 46.084 35.809 46.084z"/></g></g></symbol><symbol id="phone" viewBox="0 0 50 50"><g><rect opacity="1.000000e-04" width="50" height="50"/><g id="Line_6_" transform="matrix(-0.695, 0.719, -0.719, -0.695, 64.96, 30.516)"><path id="Path_4_6_" fill="#B34848" d="M35.809 46.084c2.956 0 4.951-2.079 5.538-5.714.135-.948-.12-1.91-.707-2.666l-.113-.106-4.293-3.395c-1.337-1.001-3.192-.93-4.448.17l-1.853 1.754c-3.861-.877-9.406-5.884-9.682-9.576l1.832-1.931c1.082-1.263 1.138-3.108.134-4.434l-3.381-4.279c-.035-.047-.078-.088-.127-.12-.755-.585-1.714-.84-2.659-.707-3.621.594-5.7 2.588-5.7 5.545C10.348 34.685 21.747 46.084 35.809 46.084zM16.275 16.487c.101-.007.203-.007.304 0 .436.002.861.137 1.216.389l3.303 4.173c.591.786.565 1.875-.064 2.631l-2.009 2.122c-.122.13-.19.302-.191.481 0 4.555 6.57 10.538 11.202 11.316.218.036.441-.032.601-.184l2.122-1.987c.751-.64 1.844-.679 2.638-.092l4.208 3.31c.317.439.449.985.368 1.521-.347 2.051-1.337 4.505-4.166 4.505-13.28 0-24.046-10.766-24.046-24.046C11.763 17.795 14.217 16.805 16.275 16.487z"/></g></g></symbol><symbol id="sharing-active" viewBox="0 0 50 50"><g><rect opacity="1.000000e-04" width="50" height="50"/><g><path fill="#61CE70" d="M18.511 31.087H9.452c-2.243 0-4.069-1.825-4.069-4.068V11.96c0-2.243 1.825-4.068 4.069-4.068h18.426c2.243 0 4.068 1.825 4.068 4.068v7.455c0 .318-.258.576-.576.576s-.576-.258-.576-.576V11.96c0-1.608-1.308-2.916-2.916-2.916H9.452c-1.608 0-2.916 1.308-2.916 2.916v15.059c0 1.608 1.308 2.916 2.916 2.916h9.059c.318 0 .576.258.576.576C19.087 30.829 18.829 31.087 18.511 31.087z"/><path fill="#61CE70" d="M40.548 42.108H22.121c-2.243 0-4.068-1.825-4.068-4.068V22.981c0-2.243 1.825-4.068 4.068-4.068h18.426c2.243 0 4.069 1.825 4.069 4.068V38.04C44.616 40.283 42.791 42.108 40.548 42.108zM22.121 20.066c-1.608 0-2.916 1.308-2.916 2.916V38.04c0 1.608 1.308 2.916 2.916 2.916h18.426c1.608 0 2.916-1.308 2.916-2.916V22.981c0-1.608-1.308-2.916-2.916-2.916H22.121z"/><path fill="#61CE70" d="M36.425 13.298c.198.196.477.252.731.148.254-.105.417-.35.417-.625v-1.032c1.186-.084 2.358.264 3.342.996 1.182.862 2.004 2.279 2.199 3.791.034.255.168.489.367.641.159.122.35.186.547.186.04 0 .082-.003.122-.008l.081-.01.014-.015c.53-.143.672-.514.698-.795.128-1.025.04-2.088-.263-3.156-.615-2.182-2.136-4.049-4.171-5.12-.901-.487-1.897-.82-2.962-.99V6.265c0-.275-.163-.52-.416-.625-.255-.106-.535-.049-.731.149L33.07 9.093c-.231.268-.231.657.014.941L36.425 13.298zM41.504 11.937c-1.062-.769-2.326-1.193-3.559-1.193-.321 0-.643.028-.941.081-.236.048-.396.245-.396.49v.728l-2.556-2.515 2.531-2.531v.721c0 .236.177.442.446.494 1.069.099 2.122.416 3.047.916 1.782.954 3.124 2.602 3.683 4.521.216.775.307 1.557.266 2.307C43.698 14.334 42.796 12.888 41.504 11.937z"/><path fill="#61CE70" d="M13.602 36.679 13.602 36.679c-.198-.199-.479-.255-.733-.15-.253.105-.417.351-.417.626v1.033c-1.165.078-2.369-.273-3.343-.997-1.191-.865-1.992-2.247-2.199-3.792-.033-.246-.16-.463-.358-.614-.195-.147-.441-.213-.685-.178-.42.069-.746.396-.811.819-.128 1.024-.04 2.087.263 3.158.638 2.194 2.119 4.012 4.172 5.119.899.486 1.894.819 2.961.99v1.043c0 .275.164.52.417.626.084.035.172.053.258.053.173 0 .342-.069.474-.201l3.291-3.266c.132-.131.204-.3.204-.475s-.073-.344-.204-.475L13.602 36.679zM6.266 36.325C6.051 35.551 5.96 34.77 6 34.02c.327 1.621 1.229 3.067 2.519 4.017 1.334.987 2.939 1.382 4.528 1.114.237-.049.396-.246.396-.49v-.722l2.532 2.532-2.532 2.511v-.725c0-.235-.178-.442-.447-.494-1.085-.101-2.136-.426-3.048-.942C8.185 39.888 6.843 38.248 6.266 36.325z"/></g></g></symbol><symbol id="sharing" viewBox="0 0 50 50"><g><rect opacity="1.000000e-04" width="50" height="50"/><g><path fill="#FFFFFF" d="M18.511 31.087H9.452c-2.243 0-4.069-1.825-4.069-4.068V11.96c0-2.243 1.825-4.068 4.069-4.068h18.426c2.243 0 4.068 1.825 4.068 4.068v7.455c0 .318-.258.576-.576.576s-.576-.258-.576-.576V11.96c0-1.608-1.308-2.916-2.916-2.916H9.452c-1.608 0-2.916 1.308-2.916 2.916v15.059c0 1.608 1.308 2.916 2.916 2.916h9.059c.318 0 .576.258.576.576C19.087 30.829 18.829 31.087 18.511 31.087z"/><path fill="#FFFFFF" d="M40.548 42.108H22.121c-2.243 0-4.068-1.825-4.068-4.068V22.981c0-2.243 1.825-4.068 4.068-4.068h18.426c2.243 0 4.069 1.825 4.069 4.068V38.04C44.616 40.283 42.791 42.108 40.548 42.108zM22.121 20.066c-1.608 0-2.916 1.308-2.916 2.916V38.04c0 1.608 1.308 2.916 2.916 2.916h18.426c1.608 0 2.916-1.308 2.916-2.916V22.981c0-1.608-1.308-2.916-2.916-2.916H22.121z"/><path fill="#FFFFFF" d="M36.425 13.298c.198.196.477.252.731.148.254-.105.417-.35.417-.625v-1.032c1.186-.084 2.358.264 3.342.996 1.182.862 2.004 2.279 2.199 3.791.034.255.168.489.367.641.159.122.35.186.547.186.04 0 .082-.003.122-.008l.081-.01.014-.015c.53-.143.672-.514.698-.795.128-1.025.04-2.088-.263-3.156-.615-2.182-2.136-4.049-4.171-5.12-.901-.487-1.897-.82-2.962-.99V6.265c0-.275-.163-.52-.416-.625-.255-.106-.535-.049-.731.149L33.07 9.093c-.231.268-.231.657.014.941L36.425 13.298zM41.504 11.937c-1.062-.769-2.326-1.193-3.559-1.193-.321 0-.643.028-.941.081-.236.048-.396.245-.396.49v.728l-2.556-2.515 2.531-2.531v.721c0 .236.177.442.446.494 1.069.099 2.122.416 3.047.916 1.782.954 3.124 2.602 3.683 4.521.216.775.307 1.557.266 2.307C43.698 14.334 42.796 12.888 41.504 11.937z"/><path fill="#FFFFFF" d="M13.602 36.679 13.602 36.679c-.198-.199-.479-.255-.733-.15-.253.105-.417.351-.417.626v1.033c-1.165.078-2.369-.273-3.343-.997-1.191-.865-1.992-2.247-2.199-3.792-.033-.246-.16-.463-.358-.614-.195-.147-.441-.213-.685-.178-.42.069-.746.396-.811.819-.128 1.024-.04 2.087.263 3.158.638 2.194 2.119 4.012 4.172 5.119.899.486 1.894.819 2.961.99v1.043c0 .275.164.52.417.626.084.035.172.053.258.053.173 0 .342-.069.474-.201l3.291-3.266c.132-.131.204-.3.204-.475s-.073-.344-.204-.475L13.602 36.679zM6.266 36.325C6.051 35.551 5.96 34.77 6 34.02c.327 1.621 1.229 3.067 2.519 4.017 1.334.987 2.939 1.382 4.528 1.114.237-.049.396-.246.396-.49v-.722l2.532 2.532-2.532 2.511v-.725c0-.235-.178-.442-.447-.494-1.085-.101-2.136-.426-3.048-.942C8.185 39.888 6.843 38.248 6.266 36.325z"/></g></g></symbol><symbol id="video-active" viewBox="0 0 50 50"><g><rect opacity="1.000000e-04" width="50" height="50"/><path fill="#FFFFFF" d="M41.369 15.059c-.601-.316-1.322-.27-1.879.122l-5.243 3.721v-2.218c0-1.602-1.303-2.905-2.904-2.905H11.551c-1.602 0-2.905 1.303-2.905 2.905v18.635c0 1.602 1.303 2.905 2.905 2.905h19.791c1.602 0 2.904-1.303 2.904-2.905V33.1l5.244 3.754c.308.214.668.327 1.041.327.009.001.017.001.026.001.283 0 .564-.072.812-.206.6-.306.971-.916.971-1.59V16.648C42.34 15.975 41.968 15.365 41.369 15.059zM40.885 35.654c-.087.091-.203.142-.329.145-.102.006-.212-.032-.299-.1l-6.011-4.26V20.564l6.014-4.3c.1-.077.223-.107.347-.094.124.016.234.08.311.179.065.084.1.19.098.299v18.672C41.018 35.444 40.971 35.564 40.885 35.654zM32.923 35.317c-.007.866-.716 1.575-1.581 1.581H11.551c-.866-.006-1.575-.715-1.581-1.58V16.683c.006-.866.715-1.576 1.581-1.581h19.79c.865.006 1.574.715 1.581 1.58L32.923 35.317z"/><circle fill="#61CE70" cx="45.727" cy="6.273" r="2.273"/></g></symbol><symbol id="video" viewBox="0 0 50 50"><g><rect opacity="1.000000e-04" width="50" height="50"/><g><path fill="#FFFFFF" d="M41.369 15.059c-.601-.316-1.322-.27-1.879.122l-5.243 3.721v-2.218c0-1.602-1.303-2.905-2.904-2.905H11.551c-1.602 0-2.905 1.303-2.905 2.905v18.635c0 1.602 1.303 2.905 2.905 2.905h19.791c1.602 0 2.904-1.303 2.904-2.905V33.1l5.244 3.754c.308.214.668.327 1.041.327.009.001.017.001.026.001.283 0 .564-.072.812-.206.6-.306.971-.916.971-1.59V16.648C42.34 15.975 41.968 15.366 41.369 15.059zM40.885 35.654c-.087.091-.203.142-.329.145-.102.006-.212-.032-.299-.1l-6.011-4.26V20.564l6.014-4.3c.1-.077.223-.107.347-.094.124.016.234.08.311.179.065.084.1.19.098.299v18.672C41.018 35.444 40.971 35.564 40.885 35.654zM32.923 35.317c-.007.866-.716 1.575-1.581 1.581H11.551c-.866-.006-1.575-.715-1.581-1.58V16.683c.006-.866.715-1.576 1.581-1.581h19.79c.865.006 1.574.715 1.581 1.58L32.923 35.317z"/><path fill="#B34848" d="M38.477 9.015c-.223-.223-.52-.346-.836-.346-.316 0-.612.123-.836.346L6.507 39.314c-.461.461-.461 1.211 0 1.672.223.223.52.346.836.346.316 0 .613-.123.836-.346l30.299-30.299c.223-.223.346-.52.346-.836C38.824 9.535 38.701 9.238 38.477 9.015zM37.642 9.169 37.642 9.169c-.087 0-.174.017-.257.05C37.467 9.185 37.554 9.169 37.642 9.169zM7.086 40.781c.082.033.169.05.257.05h0C7.256 40.831 7.169 40.815 7.086 40.781z"/></g></g></symbol></svg>